<svg xmlns="http://www.w3.org/2000/svg" width="149.705" height="57.555" viewBox="0 0 149.705 57.555"><defs><style>.a{fill:#134321;}.b{fill:none;}</style></defs><g transform="translate(0 0)"><path class="a" d="M625.515,283.795a7.329,7.329,0,0,1,.768-3.437,7.539,7.539,0,0,1,2.007-2.455,8.869,8.869,0,0,1,2.839-1.494,10.655,10.655,0,0,1,3.266-.512,10.455,10.455,0,0,1,3.245.512,8.924,8.924,0,0,1,2.818,1.494,7.546,7.546,0,0,1,2.007,2.455,7.332,7.332,0,0,1,.768,3.437v7.215a7.429,7.429,0,0,1-.768,3.48,7.319,7.319,0,0,1-2.007,2.434,8.818,8.818,0,0,1-2.818,1.451,10.877,10.877,0,0,1-3.245.491,11.086,11.086,0,0,1-3.266-.491,8.769,8.769,0,0,1-2.839-1.451,7.312,7.312,0,0,1-2.007-2.434,7.426,7.426,0,0,1-.768-3.48Zm8.881-2.562a3.881,3.881,0,0,0-2.007.555,1.777,1.777,0,0,0-.94,1.622v7.728a2.026,2.026,0,0,0,.94,1.729,3.417,3.417,0,0,0,2.007.662,3.359,3.359,0,0,0,1.964-.662,2.027,2.027,0,0,0,.939-1.729V283.41a1.778,1.778,0,0,0-.939-1.622A3.811,3.811,0,0,0,634.4,281.233Z" transform="translate(-493.529 -254.101)"/><path class="a" d="M353.916,285.862q-7.489,10.406-14.992,20.8a5.159,5.159,0,0,1-.465.444c-1.121-1.6-2.143-3.085-3.2-4.549q-6.328-8.776-12.673-17.54a21.188,21.188,0,0,1-3.978-11.023,21.238,21.238,0,0,0,3.978,13.914q6.331,8.774,12.673,17.54c1.056,1.464,2.078,2.953,3.2,4.549a5.2,5.2,0,0,0,.465-.444q7.5-10.4,14.992-20.8a22.9,22.9,0,0,0,4.524-15.151A23.11,23.11,0,0,1,353.916,285.862Z" transform="translate(-271.534 -252.442)"/><path class="a" d="M163.644,254.294v23.952h-6.319V254.294h-8.667v-6.319h23.654v6.319Z" transform="translate(-148.658 -233.908)"/><path class="a" d="M237.54,275.9a14.618,14.618,0,0,1,3.117.427V281.1a6.533,6.533,0,0,0-1.665-.213h-.3a5.863,5.863,0,0,0-1.9.384,3.568,3.568,0,0,0-1.43.982,2.326,2.326,0,0,0-.555,1.58v14.6h-5.935V283.752a7.291,7.291,0,0,1,.79-3.458,7.472,7.472,0,0,1,2.028-2.455,8.873,8.873,0,0,1,2.8-1.452A10.137,10.137,0,0,1,237.54,275.9Z" transform="translate(-206.671 -254.101)"/><path class="a" d="M277.157,291.864a7.476,7.476,0,0,1,.662-3.288,6.411,6.411,0,0,1,1.75-2.242,7.052,7.052,0,0,1,2.519-1.281,10.676,10.676,0,0,1,2.925-.405,11.91,11.91,0,0,1,3.928.683v-1.58a2.652,2.652,0,0,0-1.025-2.412,4.311,4.311,0,0,0-2.391-.662,6.067,6.067,0,0,0-2.54.6,6.763,6.763,0,0,0-2.114,1.452l-2.9-3.117a10.381,10.381,0,0,1,3.693-2.818,11.287,11.287,0,0,1,4.291-.9,11.124,11.124,0,0,1,3.223.469,8.1,8.1,0,0,1,2.775,1.452,7.431,7.431,0,0,1,1.964,2.455,7.613,7.613,0,0,1,.747,3.48v13.492a28.68,28.68,0,0,1-4.12,1.174,20.631,20.631,0,0,1-4.205.448q-4.7,0-6.938-1.9A6.346,6.346,0,0,1,277.157,291.864ZM286.08,289a3.541,3.541,0,0,0-2.5.747,2.551,2.551,0,0,0-.79,1.943,2.36,2.36,0,0,0,.832,1.9,4.024,4.024,0,0,0,2.626.7,10.011,10.011,0,0,0,2.519-.3v-4.483a6.869,6.869,0,0,0-1.238-.363A7.205,7.205,0,0,0,286.08,289Z" transform="translate(-241.591 -254.101)"/><path class="a" d="M451.591,298.866a11.087,11.087,0,0,1-3.266-.491,8.781,8.781,0,0,1-2.861-1.473,7.419,7.419,0,0,1-2.028-2.455,7.333,7.333,0,0,1-.768-3.437v-7.3a7.256,7.256,0,0,1,.79-3.48,7.425,7.425,0,0,1,2.049-2.434,8.682,8.682,0,0,1,2.882-1.43,11.825,11.825,0,0,1,6.447-.043,7.924,7.924,0,0,1,2.732,1.345,6.792,6.792,0,0,1,1.921,2.348,7.525,7.525,0,0,1,.726,3.437v6.49h-11.57v.982a2.167,2.167,0,0,0,1.025,1.943,4.157,4.157,0,0,0,2.306.662,5.05,5.05,0,0,0,1.985-.406,3.046,3.046,0,0,0,1.473-1.259l3.885,2.818a6.844,6.844,0,0,1-1.558,1.985,8.6,8.6,0,0,1-1.964,1.281,9.166,9.166,0,0,1-2.135.7A10.788,10.788,0,0,1,451.591,298.866Zm3.031-15.328a1.919,1.919,0,0,0-.9-1.729,3.634,3.634,0,0,0-2.007-.576,4.033,4.033,0,0,0-2.114.576,1.925,1.925,0,0,0-.96,1.772v1.964h5.977Z" transform="translate(-361.29 -254.101)"/><path class="a" d="M525.421,278.47h-5.935V248.284h5.935v16.438l6.4-8.368h6.917l-8.8,10.674q2.091,2.776,4.44,5.764t4.4,5.679h-6.874L525.8,270.4l-.384.342Z" transform="translate(-416.847 -234.132)"/><path class="a" d="M356.742,200.045a13.162,13.162,0,0,1,12.872,11.561,12.639,12.639,0,0,0,.086-1.414,13.037,13.037,0,1,0-26.074.019,12.784,12.784,0,0,0,.085,1.392A13.158,13.158,0,0,1,356.742,200.045Z" transform="translate(-289.662 -197.154)"/><path class="a" d="M353.916,264.973q-7.489,10.406-14.992,20.8a5.221,5.221,0,0,1-.465.443c-1.121-1.6-2.143-3.085-3.2-4.549q-6.328-8.776-12.673-17.54a21.187,21.187,0,0,1-3.978-11.023,21.237,21.237,0,0,0,3.978,13.914q6.331,8.774,12.673,17.54c1.056,1.464,2.078,2.953,3.2,4.549a5.218,5.218,0,0,0,.465-.443q7.5-10.4,14.992-20.8a22.9,22.9,0,0,0,4.524-15.151A23.11,23.11,0,0,1,353.916,264.973Z" transform="translate(-271.534 -237.335)"/><path class="a" d="M361.478,270.268a11.274,11.274,0,0,0,11.174-11.126,10.764,10.764,0,0,0-.076-1.262,11.177,11.177,0,0,1-22.21,0,10.813,10.813,0,0,0-.076,1.279A11.267,11.267,0,0,0,361.478,270.268Z" transform="translate(-294.482 -241.071)"/><path class="a" d="M559.609,278.47h-5.935V248.284h5.935v16.438l6.4-8.368h6.917l-8.8,10.674q2.091,2.776,4.44,5.764t4.4,5.679H566.1l-6.105-8.07-.384.342Z" transform="translate(-441.573 -234.132)"/><path class="b" d="M576.561,274.555l-8.334,10.864,8.818,11.971h7.888V273.448Z" transform="translate(-452.097 -252.331)"/></g></svg>
